#!OML:ASF G:\JayActor3\Patient Classification 1\Patient 1\Session 6\male.ASF
:FULLY-SPECIFIED
:DEGREES
1488
root 21.6184 15.0409 -9.52393 202.042 -50.9082 -183.996
lowerback 24.7813 -0.221984 2.52208
upperback 6.71464 -0.545616 -0.934069
thorax -6.37087 -0.605156 -2.26991
lowerneck 3.38048 0.167415 0.416753
upperneck -27.8883 -0.974645 0.914781
head -9.29214 -1.29023 0.443576
rclavicle -1.45113e-014 -2.06736e-014
rhumerus 55.8221 1.87266 -49.9163
rradius 82.6785
rwrist 4.26424
rhand -42.0377 -10.4719
rfingers 7.12502
rthumb -14.9315 -39.9137
lclavicle -1.45113e-014 -2.06736e-014
lhumerus 61.6654 1.23832 45.2911
lradius 77.5881
lwrist 26.7308
lhand -41.705 4.60429
lfingers 7.12502
lthumb -14.6109 34.0696
rfemur -24.3903 -1.96734 22.9529
rtibia 63.4544
rfoot -24.0149 -21.8901
rtoes -29.7477
lfemur -28.0241 11.8968 -19.1374
ltibia 66.263
lfoot -6.21104 -1.3386
ltoes -29.8982
1489
root 21.315 15.2161 -9.78935 200.645 -50.9565 -183.85
lowerback 23.6233 -0.0811798 2.50734
upperback 6.57791 -0.340157 -0.873302
thorax -5.92584 -0.483318 -2.25667
lowerneck 3.24437 -0.107879 0.464802
upperneck -25.418 -1.05291 1.17075
head -8.39902 -1.22176 0.482365
rclavicle 2.80286e-014 7.15625e-015
rhumerus 54.8057 1.95402 -49.0399
rradius 81.8617
rwrist 4.30798
rhand -41.6572 -10.5093
rfingers 7.12502
rthumb -14.5649 -39.9779
lclavicle 2.80286e-014 7.15625e-015
lhumerus 61.7321 0.946868 44.9425
lradius 76.8088
lwrist 26.1246
lhand -41.39 4.40738
lfingers 7.12502
lthumb -14.3075 33.8944
rfemur -20.3312 -1.27 22.8449
rtibia 60.3859
rfoot -20.7719 -21.963
rtoes -28.3182
lfemur -24.783 12.0474 -18.3161
ltibia 64.2733
lfoot -1.6105 -1.38893
ltoes -28.7923
1490
root 21.0074 15.3977 -10.0541 199.269 -51.0594 -183.616
lowerback 22.424 0.0434564 2.57615
upperback 6.49296 -0.141843 -0.779909
thorax -5.39762 -0.364952 -2.24861
lowerneck 3.0437 -0.357407 0.501907
upperneck -23.0661 -1.14907 1.40806
head -7.56683 -1.1766 0.522265
rclavicle 6.02318e-014 4.63168e-014
rhumerus 53.958 1.94991 -48.0362
rradius 80.8601
rwrist 4.33291
rhand -41.3927 -10.4855
rfingers 7.12502
rthumb -14.31 -39.9724
lclavicle 6.02318e-014 4.63168e-014
lhumerus 61.9434 0.676138 44.6558
lradius 75.8927
lwrist 25.6943
lhand -41.0693 4.14155
lfingers 7.12502
lthumb -13.9984 33.6502
rfemur -16.5749 -0.450893 22.8728
rtibia 57.4765
rfoot -17.1108 -22.3468
rtoes -26.2946
lfemur -21.8908 11.9708 -17.5356
ltibia 62.5199
lfoot 3.10484 -1.17358
ltoes -27.2514
1491
root 20.6997 15.5853 -10.314 197.948 -51.3112 -183.317
lowerback 21.262 0.106583 2.80117
upperback 6.43028 0.00488336 -0.668449
thorax -4.86075 -0.271766 -2.29236
lowerneck 2.81397 -0.588533 0.554549
upperneck -20.9065 -1.2696 1.61682
head -6.81676 -1.1593 0.556191
rclavicle -8.78628e-014 2.90226e-014
rhumerus 53.2514 1.84651 -46.955
rradius 79.7218
rwrist 4.31402
rhand -41.2702 -10.4153
rfingers 7.12502
rthumb -14.192 -39.9105
lclavicle -8.78628e-014 2.90226e-014
lhumerus 62.2909 0.434125 44.3693
lradius 74.9329
lwrist 25.5586
lhand -40.7348 3.8781
lfingers 7.12502
lthumb -13.676 33.4088
rfemur -13.2068 0.302825 23.0487
rtibia 54.8218
rfoot -13.0044 -23.0609
rtoes -23.6285
lfemur -19.4543 11.6456 -16.8175
ltibia 61.0938
lfoot 7.81252 -0.873928
ltoes -24.8021
1492
root 20.3978 15.7778 -10.567 196.688 -51.7355 -182.94
lowerback 20.198 0.0969044 3.16862
upperback 6.36943 0.0796287 -0.527205
thorax -4.3705 -0.214102 -2.36531
lowerneck 2.57348 -0.795952 0.584342
upperneck -18.9873 -1.40458 1.7999
head -6.15825 -1.16169 0.590617
rclavicle -8.15017e-015 4.77083e-014
rhumerus 52.7029 1.65714 -45.8404
rradius 78.4966
rwrist 4.22576
rhand -41.2474 -10.2696
rfingers 7.12502
rthumb -14.17 -39.7663
lclavicle -8.15017e-015 4.77083e-014
lhumerus 62.7302 0.262685 44.0483
lradius 74.0092
lwrist 25.7069
lhand -40.3999 3.66399
lfingers 7.12502
lthumb -13.3533 33.2161
rfemur -10.3147 0.893027 23.3722
rtibia 52.5186
rfoot -8.35434 -24.02
rtoes -20.297
lfemur -17.5563 11.164 -16.152
ltibia 60.0862
lfoot 12.1385 -0.743174
ltoes -21.6765
1493
root 20.1068 15.9738 -10.8116 195.519 -52.3281 -182.506
lowerback 19.2763 0.0212281 3.6366
upperback 6.29493 0.0809106 -0.362494
thorax -3.96838 -0.193544 -2.45335
lowerneck 2.32357 -0.988855 0.595892
upperneck -17.3236 -1.55887 1.95564
head -5.58921 -1.18514 0.623816
rclavicle -5.76476e-015 2.66371e-014
rhumerus 52.2962 1.3757 -44.7486
rradius 77.2367
rwrist 4.10319
rhand -41.2736 -10.0953
rfingers 7.12502
rthumb -14.1953 -39.5903
lclavicle -5.76476e-015 2.66371e-014
lhumerus 63.2463 0.18494 43.6673
lradius 73.1805
lwrist 26.0724
lhand -40.0455 3.5211
lfingers 7.12502
lthumb -13.0117 33.0953
rfemur -7.98717 1.24674 23.7978
rtibia 50.6653
rfoot -2.97498 -24.8596
rtoes -16.297
lfemur -16.2533 10.6536 -15.5415
ltibia 59.5768
lfoot 15.8008 -0.876555
ltoes -18.1318
1494
root 19.8297 16.1715 -11.0473 194.468 -53.0404 -182.04
lowerback 18.5082 -0.107492 4.13797
upperback 6.2002 0.0135212 -0.173319
thorax -3.66978 -0.208977 -2.5207
lowerneck 2.07511 -1.16641 0.547033
upperneck -15.9137 -1.72354 2.10243
head -5.10544 -1.22227 0.667357
rclavicle -3.63776e-014 3.18055e-015
rhumerus 52.0375 1.02468 -43.7197
rradius 75.9946
rwrist 3.98069
rhand -41.2653 -9.93894
rfingers 7.12502
rthumb -14.1873 -39.4345
lclavicle -3.63776e-014 3.18055e-015
lhumerus 63.7883 0.233313 43.2251
lradius 72.4873
lwrist 26.537
lhand -39.6724 3.4388
lfingers 7.12502
lthumb -12.652 33.0356
rfemur -6.29251 1.33247 24.2605
rtibia 49.3523
rfoot 3.02409 -24.9813
rtoes -12.3791
lfemur -15.5601 10.274 -14.9982
ltibia 59.6142
lfoot 18.5844 -1.2814
ltoes -14.885
1495
root 19.5672 16.3688 -11.2738 193.542 -53.7923 -181.564
lowerback 17.894 -0.259094 4.62053
upperback 6.09701 -0.0924916 0.0264195
thorax -3.46242 -0.246762 -2.55997
lowerneck 1.82643 -1.33604 0.448102
upperneck -14.7481 -1.90053 2.24648
head -4.70027 -1.27377 0.720839
rclavicle 4.13472e-014 -1.07344e-014
rhumerus 51.9131 0.59552 -42.7815
rradius 74.8006
rwrist 3.88325
rhand -41.1974 -9.80659
rfingers 7.12502
rthumb -14.1218 -39.3067
lclavicle 4.13472e-014 -1.07344e-014
lhumerus 64.3644 0.432052 42.7278
lradius 71.918
lwrist 26.9454
lhand -39.2862 3.36068
lfingers 7.12502
lthumb -12.2796 32.9801
rfemur -5.2508 1.15527 24.6982
rtibia 48.6604
rfoot 9.13347 -23.91
rtoes -9.27314
lfemur -15.4338 10.1497 -14.5443
ltibia 60.2026
lfoot 20.4128 -1.8703
ltoes -12.2799
1496
root 19.3179 16.5641 -11.4906 192.73 -54.4934 -181.109
lowerback 17.4439 -0.412091 5.03901
upperback 6.00169 -0.215499 0.222566
thorax -3.33407 -0.297189 -2.56477
lowerneck 1.58329 -1.49291 0.290427
upperneck -13.4565 -2.08964 2.35033
head -4.71724 -1.32658 0.855548
rclavicle -1.23246e-014 -1.90833e-014
rhumerus 51.9244 0.111993 -41.9717
rradius 73.681
rwrist 3.84886
rhand -41.0449 -9.74174
rfingers 7.12502
rthumb -13.9749 -39.252
lclavicle -1.23246e-014 -1.90833e-014
lhumerus 64.9567 0.801945 42.1751
lradius 71.4565
lwrist 27.1975
lhand -38.9174 3.31249
lfingers 7.12502
lthumb -11.924 32.9529
rfemur -4.81965 0.735013 25.0566
rtibia 48.6475
rfoot 14.3468 -21.9135
rtoes -6.94567
lfemur -15.779 10.3408 -14.2204
ltibia 61.2871
lfoot 21.3961 -2.50883
ltoes -10.6285
